<?xml version="1.0" encoding="iso-8859-1"?>
<!-- Uploaded to: SVG Repo, www.svgrepo.com, Generator: SVG Repo Mixer Tools -->
<svg fill="#000000" height="800px" width="800px" version="1.1" id="Layer_1" xmlns="http://www.w3.org/2000/svg" xmlns:xlink="http://www.w3.org/1999/xlink" 
	 viewBox="0 0 454.282 454.282" xml:space="preserve">
<g id="XMLID_147_">
	<g>
		<path d="M380.403,376.871c-2.757-31.648-12.31-64.136-27.596-93.218c-14.283-27.175-32.848-49.858-53.594-65.816
			c20.746-15.958,39.31-38.641,53.594-65.816c12.162-23.138,20.694-48.433,25.065-73.745c16.417-4.983,28.367-20.231,28.367-38.276
			c0-22.091-17.908-40-40-40H88.043c-22.092,0-40,17.909-40,40c0,18.045,11.95,33.293,28.367,38.276
			c4.37,25.312,12.902,50.607,25.064,73.745c14.283,27.175,32.848,49.858,53.594,65.816c-20.746,15.958-39.31,38.641-53.594,65.816
			c-15.286,29.082-24.84,61.57-27.596,93.218c-15.098,5.72-25.835,20.308-25.835,37.411c0,22.091,17.908,40,40,40h278.195
			c22.092,0,40-17.909,40-40C406.238,397.179,395.501,382.591,380.403,376.871z M242.563,296.411
			c19.129,9.909,32.907,36.941,32.907,61.79h-96.659c0-24.849,13.778-51.881,32.907-61.79c-0.018-0.009,0.141-0.113,0.422-0.272
			v-75.947c-3.435-1.189-5.649-2.314-5.571-2.355c-25.515-13.217-43.893-49.273-43.893-82.417h128.927
			c0,33.144-18.378,69.2-43.893,82.417c0.078,0.04-2.136,1.166-5.571,2.355v75.947C242.422,296.298,242.581,296.401,242.563,296.411
			z"/>
	</g>
</g>
</svg>